<svg width="30" height="28" viewBox="0 0 30 28" fill="none" xmlns="http://www.w3.org/2000/svg">
<path d="M12.875 9.29721C12.3875 9.73173 12.3875 10.4225 12.875 10.857L15.25 12.974H3.75C3.0625 12.974 2.5 13.4754 2.5 14.0882C2.5 14.7009 3.0625 15.2023 3.75 15.2023H15.25L12.875 17.3193C12.3875 17.7538 12.3875 18.4446 12.875 18.8791C13.3625 19.3136 14.1375 19.3136 14.625 18.8791L19.1125 14.8792C19.6 14.4447 19.6 13.7428 19.1125 13.3082L14.625 9.29721C14.1375 8.86268 13.3625 8.86268 12.875 9.29721ZM25 21.8874H16.25C15.5625 21.8874 15 22.3887 15 23.0015C15 23.6143 15.5625 24.1157 16.25 24.1157H25C26.375 24.1157 27.5 23.1129 27.5 21.8874V6.28894C27.5 5.06335 26.375 4.0606 25 4.0606H16.25C15.5625 4.0606 15 4.56197 15 5.17477C15 5.78756 15.5625 6.28894 16.25 6.28894H25V21.8874Z" fill="white"/>
</svg>
