<svg width="24" height="24" viewBox="0 0 24 24" fill="none" xmlns="http://www.w3.org/2000/svg">
<path d="M17 13V11.3333H15.4V9.66667C15.4 8.75 14.68 8 13.8 8H2.6C1.72 8 1 8.75 1 9.66667V21.3333C1 22.25 1.72 23 2.6 23H13.8C14.68 23 15.4 22.25 15.4 21.3333V19.6667H17V18H15.4V16.3333H17V14.6667H15.4V13H17ZM13.8 21.3333H2.6V9.66667H13.8V21.3333ZM4.2 16.3333H8.2V19.6667H4.2V16.3333ZM9 11.3333H12.2V13.8333H9V11.3333ZM4.2 11.3333H8.2V15.5H4.2V11.3333ZM9 14.6667H12.2V19.6667H9V14.6667Z" fill="#878787"/>
<path d="M19.5714 6.07143H19.0714V6.57143V9.42857C19.0714 9.46672 19.0381 9.5 19 9.5C18.9619 9.5 18.9286 9.46672 18.9286 9.42857V6.57143V6.07143H18.4286H15.5714C15.5333 6.07143 15.5 6.03814 15.5 6C15.5 5.96186 15.5333 5.92857 15.5714 5.92857H18.4286H18.9286V5.42857V2.57143C18.9286 2.53329 18.9619 2.5 19 2.5C19.0381 2.5 19.0714 2.53329 19.0714 2.57143V5.42857V5.92857H19.5714H22.4286C22.4667 5.92857 22.5 5.96186 22.5 6C22.5 6.03814 22.4667 6.07143 22.4286 6.07143H19.5714Z" fill="#878787" stroke="#878787"/>
</svg>
