<svg width="89" height="43" viewBox="0 0 89 43" fill="none" xmlns="http://www.w3.org/2000/svg">
<path d="M3 21.5H23.122C23.2439 16.5947 25.3902 6.02727 33 3" stroke="#5C5C5C" stroke-width="5" stroke-linecap="round"/>
<path d="M3 21.5H23.122C23.2439 26.4053 25.3902 36.9727 33 40" stroke="#5C5C5C" stroke-width="5" stroke-linecap="round"/>
<path d="M86 21.5H65.878C65.7561 16.5947 63.6098 6.02727 56 3" stroke="#5C5C5C" stroke-width="5" stroke-linecap="round"/>
<path d="M86 21.5H65.878C65.7561 26.4053 63.6098 36.9727 56 40" stroke="#5C5C5C" stroke-width="5" stroke-linecap="round"/>
<path d="M37.9844 28.1389H42.1307V23.0977H43.5625L46.2472 28.1389H50.7514L47.6491 22.4414C49.2749 21.6584 50.2443 20.1744 50.2443 18.0565C50.2443 14.8051 47.9698 12.8662 44.5767 12.8662H37.9844V28.1389ZM42.1307 19.8761V16.1772H43.5923C45.0465 16.1772 45.919 16.744 45.919 18.0565C45.919 19.3615 45.0465 19.8761 43.5923 19.8761H42.1307Z" fill="#5C5C5C"/>
</svg>
