<svg width="89" height="43" viewBox="0 0 89 43" fill="none" xmlns="http://www.w3.org/2000/svg">
<path d="M3 21.5H23.122C23.2439 16.5947 25.3902 6.02727 33 3" stroke="#5C5C5C" stroke-width="5" stroke-linecap="round"/>
<path d="M3 21.5H23.122C23.2439 26.4053 25.3902 36.9727 33 40" stroke="#5C5C5C" stroke-width="5" stroke-linecap="round"/>
<path d="M86 21.5H65.878C65.7561 16.5947 63.6098 6.02727 56 3" stroke="#5C5C5C" stroke-width="5" stroke-linecap="round"/>
<path d="M86 21.5H65.878C65.7561 26.4053 63.6098 36.9727 56 40" stroke="#5C5C5C" stroke-width="5" stroke-linecap="round"/>
<path d="M46.2173 19.5H50.1847C50.1697 16.5021 47.858 14.5185 44.1591 14.5185C40.5273 14.5185 37.962 16.4723 37.9844 19.3807C37.9769 21.767 39.6325 23.0945 42.3395 23.6761L43.8608 24.0043C45.5611 24.3771 46.1428 24.8022 46.1577 25.4957C46.1428 26.2489 45.4567 26.7784 44.1293 26.7784C42.5408 26.7784 41.6012 26.0327 41.5341 24.6307H37.5966C37.6115 28.4638 40.2067 30.179 44.1889 30.179C48.0593 30.179 50.3786 28.5085 50.3935 25.4957C50.3786 23.169 48.9915 21.5359 45.6207 20.8125L44.3679 20.544C42.9212 20.2383 42.2724 19.8132 42.3097 19.0824C42.3171 18.4112 42.8764 17.919 44.1591 17.919C45.5014 17.919 46.1353 18.5082 46.2173 19.5Z" fill="#5C5C5C"/>
</svg>
