<svg width="514" height="453" viewBox="0 0 514 453" fill="none" xmlns="http://www.w3.org/2000/svg">
<g id="undraw_dev_productivity_umsq 1" clip-path="url(#clip0_112_298)">
<path id="Vector" d="M280.561 126.156C306.7 126.156 327.889 104.516 327.889 77.8232C327.889 51.1299 306.7 29.4907 280.561 29.4907C254.422 29.4907 233.233 51.1299 233.233 77.8232C233.233 104.516 254.422 126.156 280.561 126.156Z" fill="#A0616A"/>
<path id="Vector_2" d="M245.236 101.99C245.236 101.99 254.153 170.636 240.435 178.341C226.717 186.046 322.059 186.746 322.059 186.746C322.059 186.746 300.796 127.206 310.398 108.994L245.236 101.99Z" fill="#A0616A"/>
<path id="Vector_3" d="M391.679 187.094L383.749 223.966L366.984 301.977L366.482 306.249L360.696 355.708L356.847 388.564L354.266 410.635C338.575 418.871 327.202 424.556 327.202 424.556C327.202 424.556 326.224 419.548 324.647 413.139C313.635 416.511 293.259 422.104 275.991 423.222C282.279 430.379 285.169 437.103 281.249 442.066C269.42 457.025 220.583 425.687 203.502 414C203.104 416.798 202.953 419.627 203.051 422.453L189.98 412.186L191.273 388.564L193.455 348.596L196.197 298.473C195.332 296.327 194.608 294.125 194.028 291.881C190.025 277.342 185.165 248.311 181.439 223.966C178.44 204.373 176.187 187.817 175.711 184.294C175.646 183.834 175.614 183.597 175.614 183.597L247.975 150.944C253.117 163.123 277.13 166.784 277.13 166.784C297.024 165.384 312.618 154.671 312.618 154.671L391.679 187.094Z" fill="#D0CDE1"/>
<path id="Vector_4" d="M332.692 410.55C332.692 410.55 329.628 411.621 324.647 413.139C313.635 416.511 293.258 422.104 275.991 423.222C261.123 424.195 248.56 421.855 246.262 411.95C245.278 407.691 246.674 404.188 249.719 401.309C258.806 392.705 282.542 389.623 301.368 388.564C306.684 388.269 311.601 388.131 315.694 388.078C322.645 387.986 327.202 388.131 327.202 388.131L327.312 388.564L332.692 410.55Z" fill="#A0616A"/>
<path id="Vector_5" d="M241.188 32.1051L232.339 28.4872C232.339 28.4872 250.842 7.68436 276.585 9.49339L269.345 1.35305C269.345 1.35305 287.043 -5.88265 303.133 13.1112C311.591 23.0958 321.377 34.8323 327.477 48.0532H336.954L332.999 56.9472L346.842 65.8411L332.633 64.2436C333.48 69.114 333.61 74.0862 333.019 78.9958C332.409 83.9069 329.955 88.3841 326.174 91.4824C326.174 91.4824 315.2 68.2839 315.2 64.666V73.7108C315.2 73.7108 306.351 65.5705 306.351 60.1437L301.524 66.475L299.11 56.5258L269.345 66.475L274.172 58.3348L255.669 61.0482L262.909 51.099C262.909 51.099 241.993 62.8571 241.188 72.8064C240.384 82.7555 234.262 92.1829 234.262 92.1829C234.262 92.1829 217.859 45.6721 241.188 32.1051Z" fill="#2F2E41"/>
<path id="Vector_6" d="M443.122 356.608C438.301 361.945 426.356 369.984 411.875 378.686C406.488 381.919 400.753 385.252 394.903 388.564C380.943 396.471 366.327 404.306 354.266 410.635C338.575 418.871 327.202 424.556 327.202 424.556C327.202 424.556 326.224 419.548 324.647 413.139C322.536 404.562 319.357 393.474 316.042 388.564C315.926 388.393 315.81 388.236 315.695 388.078C314.729 386.783 313.757 386.027 312.798 386.027L360.695 355.708L381.394 342.602L366.481 306.249L347.778 260.648L359.067 223.966L370.414 187.094H391.679C391.679 187.094 398.72 202.789 407.724 224.676C409.069 227.949 410.459 231.36 411.875 234.883C430.398 280.892 453.49 345.139 443.122 356.608Z" fill="#D0CDE1"/>
<path id="Vector_7" d="M281.249 442.066C269.419 457.025 220.583 425.687 203.501 414C199.781 411.457 197.567 409.846 197.567 409.846L213.194 388.564L218.143 381.827C218.143 381.827 222.571 384.226 229.117 388.131C229.355 388.275 229.593 388.42 229.838 388.564C235.482 391.949 242.568 396.373 249.719 401.309C259.585 408.124 269.561 415.9 275.991 423.222C282.279 430.379 285.168 437.103 281.249 442.066Z" fill="#A0616A"/>
<path id="Vector_8" d="M229.117 388.13C227.37 388.124 225.626 388.269 223.904 388.564C209.107 391.16 204.744 404.838 203.501 414C203.104 416.798 202.953 419.627 203.051 422.453L189.979 412.186L185.217 408.446C173.754 404.365 163.54 397.115 154.684 388.564C147.001 381.015 140.11 372.669 134.121 363.661C128.156 354.782 122.838 345.468 118.211 335.793C116.92 333.093 116.226 330.136 116.178 327.132C116.13 324.128 116.73 321.149 117.934 318.408L134.121 281.569L157.78 227.726C157.953 226.444 158.144 225.191 158.352 223.966C163.044 196.493 175.614 184.294 175.614 184.294H185.217L191.64 223.966L199.62 273.254L194.027 291.881L181.104 334.899L193.455 348.596L229.117 388.13Z" fill="#D0CDE1"/>
<path id="Vector_9" d="M239.985 273.294L248.194 283.074C251.244 282.48 254.429 281.782 257.709 280.999L255.351 273.294L261.117 280.162C295.869 271.433 338.946 254.462 338.946 254.462C338.946 254.462 292.44 257.945 257.717 250.198C242.354 246.77 226.547 254.547 220.243 269.26C216.578 277.811 217.154 285.22 230.15 285.22C234.542 285.143 238.921 284.723 243.249 283.962L239.985 273.294Z" fill="#1C5B36"/>
<path id="Vector_10" d="M427.128 434.047V438.036C427.13 439.131 426.932 440.217 426.543 441.237C426.37 441.692 426.161 442.132 425.918 442.552C425.151 443.867 424.063 444.955 422.76 445.711C421.456 446.467 419.983 446.864 418.485 446.863H131.083C129.584 446.864 128.111 446.467 126.808 445.711C125.505 444.955 124.416 443.867 123.649 442.552C123.407 442.132 123.198 441.692 123.025 441.237C122.636 440.217 122.437 439.131 122.439 438.036V434.047C122.439 432.888 122.663 431.74 123.097 430.669C123.531 429.597 124.168 428.624 124.97 427.805C125.773 426.985 126.726 426.335 127.775 425.891C128.824 425.448 129.948 425.22 131.083 425.22H147.649V423.36C147.649 423.311 147.659 423.263 147.677 423.219C147.695 423.174 147.721 423.134 147.755 423.099C147.788 423.065 147.828 423.038 147.872 423.02C147.916 423.001 147.963 422.992 148.01 422.992H156.653C156.701 422.992 156.748 423.001 156.792 423.02C156.835 423.038 156.875 423.065 156.909 423.099C156.942 423.134 156.969 423.174 156.987 423.219C157.005 423.263 157.014 423.311 157.014 423.36V425.22H162.414V423.36C162.414 423.311 162.423 423.263 162.441 423.219C162.459 423.174 162.486 423.134 162.519 423.099C162.553 423.065 162.592 423.038 162.636 423.02C162.68 423.001 162.727 422.992 162.774 422.992H171.418C171.465 422.992 171.512 423.001 171.556 423.02C171.6 423.038 171.639 423.065 171.673 423.099C171.706 423.134 171.733 423.174 171.751 423.219C171.769 423.263 171.778 423.311 171.778 423.36V425.22H177.184V423.36C177.184 423.311 177.194 423.263 177.212 423.219C177.23 423.174 177.256 423.134 177.29 423.099C177.323 423.065 177.363 423.038 177.407 423.02C177.451 423.001 177.498 422.992 177.545 422.992H186.188C186.236 422.992 186.283 423.001 186.326 423.02C186.37 423.038 186.41 423.065 186.444 423.099C186.477 423.134 186.504 423.174 186.522 423.219C186.54 423.263 186.549 423.311 186.549 423.36V425.22H191.949V423.36C191.949 423.311 191.958 423.263 191.976 423.219C191.994 423.174 192.021 423.134 192.054 423.099C192.088 423.065 192.127 423.038 192.171 423.02C192.215 423.001 192.262 422.992 192.309 422.992H200.953C201 422.992 201.047 423.001 201.091 423.02C201.135 423.038 201.174 423.065 201.208 423.099C201.241 423.134 201.268 423.174 201.286 423.219C201.304 423.263 201.313 423.311 201.313 423.36V425.22H206.713V423.36C206.713 423.311 206.722 423.263 206.74 423.219C206.758 423.174 206.785 423.134 206.818 423.099C206.852 423.065 206.892 423.038 206.935 423.02C206.979 423.001 207.026 422.992 207.073 422.992H215.717C215.764 422.992 215.811 423.001 215.855 423.02C215.899 423.038 215.939 423.065 215.972 423.099C216.006 423.134 216.032 423.174 216.05 423.219C216.068 423.263 216.078 423.311 216.077 423.36V425.22H221.484V423.36C221.484 423.311 221.493 423.263 221.511 423.219C221.529 423.174 221.556 423.134 221.589 423.099C221.623 423.065 221.662 423.038 221.706 423.02C221.75 423.001 221.797 422.992 221.844 422.992H230.488C230.535 422.992 230.582 423.001 230.626 423.02C230.67 423.038 230.709 423.065 230.743 423.099C230.776 423.134 230.803 423.174 230.821 423.219C230.839 423.263 230.848 423.311 230.848 423.36V425.22H236.248V423.36C236.248 423.311 236.257 423.263 236.275 423.219C236.293 423.174 236.32 423.134 236.353 423.099C236.387 423.065 236.427 423.038 236.47 423.02C236.514 423.001 236.561 422.992 236.608 422.992H304.316C304.363 422.992 304.41 423.001 304.454 423.02C304.497 423.038 304.537 423.065 304.571 423.099C304.604 423.134 304.631 423.174 304.649 423.219C304.667 423.263 304.676 423.311 304.676 423.36V425.22H310.082V423.36C310.082 423.311 310.092 423.263 310.11 423.219C310.128 423.174 310.154 423.134 310.188 423.099C310.221 423.065 310.261 423.038 310.305 423.02C310.349 423.001 310.395 422.992 310.443 422.992H319.086C319.182 422.993 319.273 423.032 319.34 423.101C319.408 423.169 319.446 423.262 319.447 423.36V425.22H324.847V423.36C324.847 423.311 324.856 423.263 324.874 423.219C324.892 423.174 324.919 423.134 324.952 423.099C324.986 423.065 325.025 423.038 325.069 423.02C325.113 423.001 325.16 422.992 325.207 422.992H333.851C333.898 422.992 333.945 423.001 333.989 423.02C334.033 423.038 334.072 423.065 334.106 423.099C334.139 423.133 334.166 423.174 334.184 423.219C334.202 423.263 334.211 423.311 334.211 423.36V425.22H339.611V423.36C339.611 423.311 339.62 423.263 339.638 423.219C339.656 423.174 339.683 423.134 339.716 423.099C339.75 423.065 339.79 423.038 339.833 423.02C339.877 423.001 339.924 422.992 339.971 422.992H348.615C348.662 422.992 348.709 423.001 348.753 423.02C348.797 423.038 348.837 423.065 348.87 423.099C348.904 423.134 348.93 423.174 348.948 423.219C348.966 423.263 348.976 423.311 348.975 423.36V425.22H354.382V423.36C354.382 423.311 354.391 423.263 354.409 423.219C354.427 423.174 354.454 423.134 354.487 423.099C354.521 423.065 354.56 423.038 354.604 423.02C354.648 423.001 354.695 422.992 354.742 422.992H363.386C363.48 422.993 363.571 423.032 363.637 423.101C363.703 423.17 363.74 423.263 363.74 423.36V425.22H369.146V423.36C369.146 423.311 369.155 423.263 369.173 423.219C369.191 423.174 369.218 423.134 369.251 423.099C369.285 423.065 369.325 423.038 369.368 423.02C369.412 423.001 369.459 422.992 369.506 422.992H378.15C378.197 422.992 378.244 423.001 378.288 423.02C378.332 423.038 378.372 423.065 378.405 423.099C378.439 423.134 378.465 423.174 378.483 423.219C378.501 423.263 378.511 423.311 378.51 423.36V425.22H383.91V423.36C383.91 423.311 383.919 423.263 383.938 423.219C383.956 423.174 383.982 423.134 384.016 423.099C384.049 423.065 384.089 423.038 384.133 423.02C384.176 423.001 384.223 422.992 384.271 422.992H392.914C392.962 422.992 393.009 423.001 393.052 423.02C393.096 423.038 393.136 423.065 393.169 423.099C393.203 423.134 393.229 423.174 393.247 423.219C393.266 423.263 393.275 423.311 393.275 423.36V425.22H418.485C419.62 425.22 420.744 425.448 421.793 425.891C422.842 426.335 423.795 426.985 424.597 427.805C425.4 428.624 426.037 429.597 426.471 430.669C426.905 431.74 427.129 432.888 427.128 434.047Z" fill="#3F3D56"/>
<path id="Vector_11" d="M510.7 441.237H38.938V442.552H510.7V441.237Z" fill="#3F3D56"/>
<path id="Vector_12" d="M403.987 266.031H296.863V263.776H248.29V266.031H140.725C138.803 266.031 136.96 266.811 135.601 268.199C134.242 269.586 133.479 271.468 133.479 273.431V423.229C133.479 425.191 134.242 427.073 135.601 428.461C136.96 429.849 138.803 430.629 140.725 430.629H403.987C405.909 430.629 407.752 429.849 409.111 428.461C410.47 427.073 411.233 425.191 411.233 423.229V273.431C411.233 272.459 411.046 271.497 410.681 270.599C410.317 269.701 409.783 268.886 409.111 268.199C408.438 267.511 407.639 266.966 406.76 266.594C405.881 266.223 404.938 266.031 403.987 266.031Z" fill="#3F3D56"/>
<path id="Vector_13" d="M272.567 334.761C281.453 334.761 288.657 327.404 288.657 318.329C288.657 309.254 281.453 301.898 272.567 301.898C263.68 301.898 256.477 309.254 256.477 318.329C256.477 327.404 263.68 334.761 272.567 334.761Z" stroke="#D0CDE1" stroke-width="2" stroke-miterlimit="10"/>
<path id="Vector_14" d="M267.418 340.676C276.304 340.676 283.508 333.319 283.508 324.245C283.508 315.17 276.304 307.813 267.418 307.813C258.531 307.813 251.328 315.17 251.328 324.245C251.328 333.319 258.531 340.676 267.418 340.676Z" fill="#D0CDE1"/>
<g id="arvore-1">
<path id="Vector_15" d="M69.7963 434.597H51.7754V453H69.7963V434.597Z" fill="#D0CDE1"/>
<path id="Vector_16" d="M58.8574 420.137V442.484H80.74V420.137H58.8574ZM79.7874 441.511H59.8035V421.11H79.7874V441.511Z" fill="#3F3D56"/>
<path id="Vector_17" d="M96.9227 394.196C97.5232 415.195 85.5083 422.891 70.4299 423.341C70.0797 423.351 69.731 423.358 69.3839 423.36C68.6846 423.365 67.9922 423.354 67.3065 423.324C53.6696 422.746 42.8752 415.354 42.3167 395.824C41.7387 375.614 66.3031 349.354 68.1461 347.411L68.1494 347.41C68.2194 347.336 68.2553 347.299 68.2553 347.299C68.2553 347.299 96.3222 373.198 96.9227 394.196Z" fill="#D0CDE1"/>
<path id="Vector_18" d="M69.3445 420.158L78.9228 405.612L69.364 421.723L69.384 423.36C68.6848 423.365 67.9923 423.353 67.3066 423.324L67.7817 402.284L67.7687 402.122L67.7862 402.09L67.8317 400.102L57.3423 384.55L67.8193 398.614L67.8565 399.034L68.2153 383.138L59.1553 367.013L68.2411 380.345L68.1463 347.411L68.1465 347.302L68.1495 347.41L68.751 373.366L77.0081 362.822L68.778 375.602L68.9582 389.821L76.5565 375.944L68.9861 391.912L69.0865 399.818L80.1364 380.487L69.1201 402.576L69.3445 420.158Z" fill="#3F3D56"/>
</g>
<g id="arvore-2">
<path id="Vector_19" d="M513.978 394.196C514.579 415.195 502.564 422.891 487.486 423.341C487.135 423.351 486.787 423.358 486.44 423.36C485.74 423.365 485.048 423.354 484.362 423.324C470.725 422.746 459.931 415.354 459.372 395.824C458.794 375.614 483.359 349.354 485.202 347.411L485.205 347.41C485.275 347.336 485.311 347.299 485.311 347.299C485.311 347.299 513.378 373.198 513.978 394.196Z" fill="#D0CDE1"/>
<path id="Vector_20" d="M486.852 434.597H468.831V453H486.852V434.597Z" fill="#D0CDE1"/>
<path id="Vector_21" d="M475.913 420.137V442.484H497.796V420.137H475.913ZM496.843 441.511H476.859V421.11H496.843V441.511Z" fill="#3F3D56"/>
<path id="Vector_22" d="M486.4 420.158L495.978 405.612L486.42 421.723L486.44 423.36C485.74 423.365 485.048 423.353 484.362 423.324L484.837 402.284L484.824 402.122L484.842 402.09L484.887 400.102L474.398 384.55L484.875 398.614L484.912 399.034L485.271 383.138L476.211 367.013L485.297 380.345L485.202 347.411L485.202 347.302L485.205 347.41L485.807 373.366L494.064 362.822L485.834 375.602L486.014 389.821L493.612 375.944L486.042 391.912L486.142 399.818L497.192 380.487L486.176 402.576L486.4 420.158Z" fill="#3F3D56"/>
</g>
</g>
<defs>
<clipPath id="clip0_112_298">
<rect width="514" height="453" fill="white"/>
</clipPath>
</defs>
</svg>
