<svg width="67" height="60" viewBox="0 0 67 60" fill="none" xmlns="http://www.w3.org/2000/svg">
<path d="M18.3455 33.3461C14.8508 33.3461 10.2154 33.3461 10.2154 33.3461C10.2154 33.3461 10.2154 33.3461 10.2154 33.3461C7.15955 33.3461 1.54553 32.9277 1.03418 27.7676C0.522816 22.6075 5.87659 21.3175 8.6174 21.3175C8.34623 17.2402 8.6174 8.41732 19.1642 9.23084C19.3288 6.3835 21.3839 0.752741 28.2873 1.00842C35.1906 1.2641 36.9165 6.59657 36.9165 9.23084C44.3835 6.79026 54.8721 8.09772 57.2836 21.3175C62.2759 21.3175 66 24.3338 66 27.7676C66 31.2014 63.0894 33.3461 61.1479 33.3461H44.2331M18.3455 33.3461V51.9035M18.3455 33.3461V29.5315M44.2331 33.3461V51.9035M44.2331 33.3461V22.7328V21.3175M18.3455 21.3175V21.3175C18.3455 18.5689 20.5737 16.3408 23.3223 16.3408H39.2563C42.0049 16.3408 44.2331 18.5689 44.2331 21.3175V21.3175M18.3455 21.3175H44.2331M18.3455 21.3175V26.1612M44.2331 51.9035V51.9035C44.2331 55.3695 41.4233 58.1792 37.9573 58.1792H24.6213C21.1553 58.1792 18.3455 55.3695 18.3455 51.9035V51.9035M44.2331 51.9035H18.3455M30.0545 55.0995H33.6572M18.3455 26.1612V29.5315M18.3455 26.1612H25.5946H30.0545M18.3455 29.5315H30.0545" stroke="#1C5B36" stroke-width="2" stroke-linecap="round"/>
<path d="M33.481 24.6501C37.774 24.6501 37.8653 31.1584 33.481 31.1584" stroke="#1C5B36" stroke-width="2"/>
<path d="M33.481 24.6501C29.1879 24.6501 29.0966 31.1584 33.481 31.1584" stroke="#1C5B36" stroke-width="2"/>
<path d="M33.4819 34.587C36.9317 34.587 37.0051 39.8168 33.4819 39.8168" stroke="#1C5B36" stroke-width="2"/>
<path d="M33.4819 34.587C30.0322 34.587 29.9588 39.8168 33.4819 39.8168" stroke="#1C5B36" stroke-width="2"/>
<path d="M31.9429 31.0981V34.589" stroke="#1C5B36" stroke-width="2" stroke-linecap="round"/>
<path d="M35.0229 31.157L35.1101 34.5871" stroke="#1C5B36" stroke-width="2" stroke-linecap="round"/>
<path d="M30.8679 37.5505L28.5217 39.8029C27.3876 40.8916 27.2864 42.6713 28.2897 43.8816L30.1706 46.1507" stroke="#1C5B36" stroke-width="2" stroke-linecap="round"/>
<path d="M36.2136 37.5505L38.5598 39.8029C39.6939 40.8916 39.7952 42.6713 38.7918 43.8816L36.9109 46.1507" stroke="#1C5B36" stroke-width="2" stroke-linecap="round"/>
</svg>
