<svg width="384" height="391" viewBox="0 0 384 391" fill="none" xmlns="http://www.w3.org/2000/svg">
<path d="M0 235.6H5.33643C60.5649 235.6 99.066 283.571 123.24 333.228C132.453 352.154 145.863 365.2 164.874 365.2" stroke="#1C5B36" stroke-width="50"/>
<path d="M0 154.6H5.33643C60.5649 154.6 99.066 106.629 123.24 56.9721C132.453 38.0459 145.863 25 164.874 25" stroke="#1C5B36" stroke-width="50"/>
<path d="M383.749 154.6H378.412C323.184 154.6 284.683 106.629 260.509 56.9721C251.295 38.0459 237.886 25 218.874 25" stroke="#1C5B36" stroke-width="50"/>
<path d="M383.749 235.6H378.412C323.184 235.6 284.683 283.571 260.509 333.228C251.295 352.154 237.886 365.2 218.874 365.2" stroke="#1C5B36" stroke-width="50"/>
</svg>
